<?xml version="1.0" standalone="no"?>
<!DOCTYPE svg PUBLIC "-//W3C//DTD SVG 20010904//EN"
 "http://www.w3.org/TR/2001/REC-SVG-20010904/DTD/svg10.dtd">
<svg version="1.0" xmlns="http://www.w3.org/2000/svg"
 width="920.000000pt" height="829.000000pt" viewBox="0 0 920.000000 829.000000"
 preserveAspectRatio="xMidYMid meet">

<g transform="translate(0.000000,829.000000) scale(0.100000,-0.100000)"
fill="#000000" stroke="none">
<path d="M4300 7853 c-148 -147 -776 -646 -1633 -1298 l-288 -219 28 -21 c135
-97 350 -328 619 -665 134 -168 274 -351 274 -359 0 -3 -20 -17 -46 -30 -63
-34 -138 -119 -165 -189 -32 -81 -32 -233 -1 -312 32 -83 105 -167 178 -207
92 -50 161 -59 295 -38 60 9 123 20 139 25 28 8 29 7 44 -43 124 -442 176
-658 179 -732 l2 -80 -105 -7 c-58 -4 -204 -9 -324 -12 -194 -5 -225 -8 -262
-26 -134 -65 -664 -446 -1243 -892 -84 -66 -155 -117 -158 -115 -2 3 -12 119
-23 258 -12 171 -20 419 -25 759 -3 278 -8 524 -11 548 -5 49 2 68 20 53 6 -5
31 -14 54 -20 38 -8 45 -7 63 12 26 28 111 165 173 280 26 48 52 87 57 87 6 0
66 -36 135 -80 69 -44 127 -80 129 -80 8 0 230 320 269 387 l41 73 47 0 c46 0
47 1 57 38 5 20 39 150 74 288 l64 250 -98 53 -99 52 -1 50 c-1 27 -3 54 -4
59 -1 6 -3 19 -4 30 0 11 -5 20 -11 20 -5 0 -155 52 -332 115 -177 63 -323
113 -324 112 -2 -1 -195 -344 -430 -762 l-427 -759 -33 -241 c-18 -132 -58
-429 -89 -660 -32 -231 -61 -422 -65 -425 -9 -6 -140 -1300 -140 -1377 1 -66
34 -103 92 -103 13 0 132 39 263 86 132 47 371 132 530 189 160 57 575 205
924 329 524 188 636 225 648 214 30 -25 141 -175 192 -259 213 -356 400 -975
495 -1636 l22 -157 31 -8 c17 -4 396 -9 842 -11 l812 -2 20 65 c38 122 128
485 163 655 79 388 101 599 101 967 0 164 3 298 6 298 4 0 80 -18 170 -39 402
-97 827 -168 1289 -216 177 -18 571 -38 660 -33 l65 3 6 305 c4 168 10 437 13
598 3 161 8 329 11 375 3 45 12 264 20 487 8 223 17 443 20 490 l6 85 -365
610 c-201 336 -369 616 -373 622 -6 10 -77 -14 -276 -92 -147 -58 -271 -105
-275 -105 -4 0 -7 75 -8 168 -2 301 -64 543 -204 797 -126 226 -354 468 -564
595 -22 13 -35 25 -29 27 26 9 253 -65 471 -152 45 -19 82 -31 82 -29 0 3 -31
47 -69 97 -249 335 -559 573 -886 683 -204 68 -274 78 -530 79 -200 0 -245 -3
-342 -23 -212 -43 -436 -120 -602 -208 -46 -24 -86 -43 -87 -41 -2 2 20 99 50
215 30 117 51 212 48 211 -4 -1 -23 -17 -42 -36z m1235 -243 c225 -47 464
-153 655 -288 84 -60 296 -250 287 -258 -2 -2 -64 21 -137 51 -155 62 -282 98
-425 120 -105 16 -345 21 -345 7 0 -4 21 -14 47 -20 76 -21 261 -96 370 -150
340 -171 614 -436 768 -742 91 -181 147 -385 164 -598 12 -146 4 -295 -14
-288 -7 2 -64 42 -126 89 -196 145 -498 348 -761 512 l-158 98 0 40 0 40 -102
-6 c-101 -6 -105 -5 -239 38 -227 73 -552 134 -799 150 -47 4 -95 8 -107 11
-35 7 -27 -8 16 -33 48 -28 236 -167 246 -183 11 -19 -187 -2 -200 17 -33 49
-25 47 -121 20 -76 -22 -117 -26 -289 -32 -295 -9 -880 -48 -892 -58 -1 -1 37
-182 83 -401 46 -219 84 -406 84 -415 0 -13 -16 -16 -99 -18 -95 -2 -99 -1
-109 22 -27 58 -287 439 -550 803 -84 118 -155 219 -158 226 -3 8 23 31 63 57
193 126 911 692 1392 1098 37 31 52 40 47 26 -4 -11 -59 -113 -122 -227 -63
-114 -114 -210 -114 -213 0 -3 28 17 63 44 107 84 296 202 443 276 205 105
453 181 674 209 88 11 367 -4 465 -24z m-715 -1226 c49 -6 72 -9 140 -19 122
-18 153 -23 240 -41 41 -9 85 -18 97 -20 33 -6 254 -71 283 -83 20 -8 5 -10
-70 -11 -52 -1 -104 -3 -115 -5 -11 -1 -101 -6 -199 -9 -99 -3 -181 -8 -183
-10 -3 -2 0 -28 6 -58 92 -486 154 -794 159 -800 4 -4 36 -1 70 8 35 9 66 14
69 11 3 -3 -16 -36 -41 -72 -41 -59 -51 -92 -25 -83 5 2 33 38 61 81 l53 78
85 2 c101 3 171 31 236 94 167 163 120 447 -91 549 l-50 24 129 -2 129 -3 23
-70 c13 -38 55 -171 94 -295 39 -124 89 -277 111 -340 48 -142 55 -191 35
-248 -34 -94 -183 -301 -403 -560 -266 -314 -412 -435 -582 -486 -105 -31
-157 -24 -515 74 -182 49 -346 94 -363 99 -18 5 -35 6 -38 1 -6 -10 132 -77
314 -152 124 -51 130 -54 136 -87 3 -18 5 -34 3 -36 -7 -7 -125 -15 -468 -31
-74 -3 -137 -9 -140 -11 -6 -7 282 4 474 18 77 5 141 7 144 5 2 -3 21 -65 41
-138 34 -126 38 -133 61 -132 14 1 141 5 283 9 298 8 269 23 238 -121 -24
-109 -47 -163 -97 -230 -140 -185 -426 -285 -774 -271 -317 12 -626 156 -770
357 -25 35 -52 70 -61 79 -23 23 -72 111 -66 117 8 9 66 11 315 15 218 3 222
3 222 24 0 12 -6 70 -14 131 -7 60 -13 118 -13 129 1 57 -131 634 -184 809
-17 55 -29 112 -27 128 7 44 -7 42 -27 -3 -21 -46 -96 -117 -152 -145 -59 -29
-175 -31 -245 -5 -95 36 -168 134 -183 244 -11 77 24 176 83 237 63 65 126 84
263 78 l99 -4 0 47 c0 44 -2 47 -30 52 -20 4 -31 14 -35 29 -13 56 -165 789
-165 797 0 5 42 12 93 16 50 4 100 9 109 10 9 2 70 7 135 11 65 3 121 8 124
10 3 2 111 6 240 9 129 4 247 8 263 10 51 6 13 -12 -69 -35 -324 -87 -545
-154 -545 -165 0 -21 40 -208 45 -214 4 -3 282 81 385 118 8 3 -4 -17 -27 -43
-161 -184 -98 -482 126 -596 149 -75 320 -48 444 69 219 208 127 572 -167 656
l-59 17 109 35 c60 19 113 38 117 42 4 5 -1 31 -13 60 l-20 52 87 -6 c49 -4
103 -8 121 -11 17 -2 32 0 32 4 0 8 -173 144 -237 187 -24 15 -43 30 -43 32 0
5 75 -1 180 -13z m1590 -669 c411 -310 485 -370 488 -393 2 -25 -6 -31 -97
-79 l-99 -53 159 -282 c87 -156 160 -287 162 -292 2 -5 27 -1 57 9 47 16 55
16 64 3 6 -8 63 -104 126 -212 l114 -197 61 6 c85 9 128 22 159 46 14 11 30
19 35 17 6 -2 31 -32 58 -68 28 -37 57 -66 69 -68 20 -3 16 -22 -92 -455 -111
-444 -114 -455 -197 -647 l-84 -195 -38 3 c-137 11 -635 227 -1040 452 -193
107 -501 289 -635 375 l-105 67 -145 -6 c-80 -3 -262 -12 -405 -20 -143 -8
-263 -12 -266 -8 -8 9 -69 235 -65 239 1 2 27 -5 57 -16 104 -35 239 -62 325
-63 l85 -1 72 49 c210 143 468 384 637 594 86 108 208 289 266 395 62 115 78
218 50 320 -14 50 -84 243 -237 652 -43 116 -79 217 -79 223 0 14 -30 37 540
-395z m-1120 275 c-65 -36 -114 -87 -146 -154 -26 -57 -26 -58 -52 76 l-19 97
81 3 c45 2 106 4 136 5 l55 2 -55 -29z m274 0 c72 -27 139 -88 173 -158 24
-49 28 -69 28 -142 0 -73 -4 -93 -28 -142 -54 -110 -146 -169 -276 -176 -74
-4 -83 -3 -78 11 5 13 1 15 -22 11 -34 -7 -77 14 -132 63 -51 46 -65 74 -84
163 -21 99 -19 136 11 200 40 87 115 154 204 181 50 15 148 9 204 -11z m-960
-44 c143 -70 230 -227 210 -382 -9 -73 -63 -182 -114 -228 -193 -174 -488
-114 -598 122 -23 49 -27 70 -27 152 0 88 3 101 33 162 45 92 105 144 207 180
106 37 205 35 289 -6z m-2196 -191 l237 -83 3 -96 c1 -53 1 -96 -2 -96 -3 0
-75 27 -162 60 -86 33 -159 58 -161 56 -2 -2 58 -45 134 -96 76 -51 141 -95
145 -99 10 -9 22 -171 12 -171 -4 0 -90 45 -191 101 -102 56 -186 99 -188 97
-2 -2 78 -69 178 -149 199 -159 191 -147 164 -237 l-12 -42 -55 33 c-159 96
-232 137 -228 128 1 -5 65 -75 140 -156 l138 -147 -92 -134 c-51 -74 -95 -134
-98 -134 -6 0 -150 100 -169 116 -2 2 2 17 9 34 17 42 64 80 90 73 24 -6 50
-51 50 -85 1 -22 1 -22 15 -4 48 63 -28 152 -111 132 -61 -16 -194 -171 -311
-365 -36 -58 -72 -116 -80 -129 l-14 -23 -33 20 c-33 21 -134 51 -170 51 -16
0 -11 -6 19 -27 22 -14 41 -27 42 -28 2 -1 6 -297 9 -658 l7 -656 -63 -30
c-87 -41 -157 -54 -264 -49 -113 6 -189 29 -240 71 l-39 33 26 170 c15 93 65
409 112 702 l86 532 73 128 c40 70 209 366 376 657 378 662 338 597 362 589
10 -3 126 -43 256 -89z m5131 -249 c17 -29 31 -63 31 -74 0 -13 5 -20 13 -17
7 3 36 -33 70 -88 33 -50 118 -185 190 -298 73 -113 182 -284 244 -381 l112
-175 -13 -740 c-7 -407 -15 -744 -19 -749 -7 -12 -186 1 -287 21 -89 18 -199
67 -233 104 l-25 26 89 340 c48 187 112 429 140 538 l52 198 61 31 c52 26 57
31 41 41 -29 16 -174 12 -217 -6 l-37 -16 -66 95 c-36 52 -65 98 -65 102 0 5
9 17 20 27 28 25 25 36 -7 29 -86 -18 -166 -47 -190 -69 l-28 -25 67 6 67 7
17 -37 c10 -19 15 -39 11 -42 -7 -8 -139 -56 -142 -52 -19 24 -144 281 -140
288 3 5 82 51 175 102 93 51 170 96 170 99 0 5 -316 -73 -387 -95 -18 -6 -25
3 -52 60 -24 52 -29 69 -19 76 7 5 93 56 191 114 98 59 176 108 174 111 -2 2
-91 -21 -197 -52 -106 -31 -197 -52 -201 -48 -4 4 -18 45 -32 91 l-25 83 32
13 c17 7 109 43 204 81 95 37 170 70 168 72 -2 3 -96 -16 -209 -41 -112 -25
-207 -46 -210 -46 -6 0 -67 113 -67 124 0 3 21 15 48 26 26 11 133 61 237 110
105 49 195 89 202 89 6 1 25 -23 42 -53z m-4675 -46 c19 -18 18 -21 -36 -172
-31 -84 -64 -177 -74 -205 -18 -50 -21 -53 -52 -53 l-34 0 6 48 c3 26 11 117
17 202 6 85 15 159 20 165 5 5 9 18 9 28 0 18 5 19 63 13 40 -5 69 -14 81 -26z
m2393 -50 c47 -30 47 -31 -24 -45 -35 -7 -37 -4 -48 75 -7 44 -6 45 10 21 10
-12 38 -36 62 -51z m1753 -320 c18 -55 40 -110 49 -122 25 -32 48 -227 29
-239 -26 -17 -41 -2 -92 91 -72 131 -124 226 -158 287 l-29 51 73 24 c44 15
78 21 85 16 6 -5 26 -54 43 -108z m-1814 -2195 c180 -29 288 -86 319 -170 15
-39 16 -52 6 -87 -37 -123 -225 -226 -521 -287 -100 -20 -298 -46 -305 -39 -2
2 6 44 18 93 l22 89 138 27 c255 50 369 109 270 140 -58 17 -487 24 -500 7 -5
-7 -31 -87 -57 -178 -26 -91 -49 -171 -52 -179 -3 -10 -16 -12 -52 -7 -26 3
-113 6 -195 7 -81 0 -149 4 -152 9 -2 4 24 22 59 39 67 33 126 89 126 119 0
30 -29 61 -83 89 l-52 27 45 7 c92 14 170 59 170 97 0 32 -46 74 -114 103 -31
13 -56 29 -56 36 0 30 216 59 575 77 108 5 298 -4 391 -19z"/>
<path d="M4225 5121 c-16 -27 -17 -142 0 -222 57 -284 295 -444 635 -426 183
10 315 55 391 133 43 44 29 58 -15 15 l-34 -33 -6 69 c-4 37 -9 88 -13 112
l-6 43 -43 -6 c-41 -5 -44 -4 -44 18 0 13 -3 44 -6 69 l-7 46 47 12 c48 12 80
36 35 27 -13 -3 -71 -16 -129 -28 -148 -32 -380 -33 -493 -2 -99 27 -180 70
-250 133 -31 27 -58 45 -62 40z m178 -141 c110 -53 204 -72 362 -72 83 0 170
6 215 15 41 8 77 13 79 11 7 -7 17 -135 11 -139 -9 -6 -683 -125 -705 -125
-10 0 -24 8 -32 18 -28 35 -74 133 -88 189 -15 57 -21 204 -9 216 4 4 29 -14
56 -38 27 -25 77 -58 111 -75z m772 -302 l10 -107 -55 -25 c-172 -77 -465 -75
-622 5 -58 29 -140 90 -133 98 9 8 744 140 770 138 18 -2 21 -13 30 -109z"/>
<path d="M5433 5632 c-20 -13 -31 -55 -20 -79 19 -42 84 -47 109 -9 14 20 8
63 -10 79 -19 18 -59 22 -79 9z"/>
<path d="M4487 5532 c-25 -27 -21 -67 8 -90 53 -42 122 15 93 76 -17 35 -75
43 -101 14z"/>
<path d="M2096 5675 c4 -10 -3 -27 -17 -43 l-24 -27 28 24 c28 25 34 45 17 56
-6 3 -7 -1 -4 -10z"/>
<path d="M2051 5570 c-1 -23 8 -48 23 -70 l24 -35 -29 -33 c-49 -56 -50 -98
-5 -165 l25 -36 -29 -30 c-25 -24 -30 -38 -30 -75 0 -44 23 -120 42 -141 5 -5
0 14 -11 43 -29 74 -28 136 4 167 13 14 28 25 34 25 5 0 -6 23 -25 51 -48 71
-44 117 14 166 l26 22 -24 33 c-13 18 -27 51 -31 73 l-6 40 -2 -35z"/>
<path d="M7581 5387 c-1 -27 25 -84 54 -114 43 -46 68 -109 62 -154 -3 -21 -1
-42 4 -45 19 -11 52 -90 59 -139 l8 -50 1 41 c1 28 -9 61 -31 105 -20 40 -31
76 -29 95 3 41 -21 97 -65 151 -20 25 -42 63 -50 86 -7 23 -13 34 -13 24z"/>
<path d="M7750 4865 c0 -9 7 -18 15 -21 26 -10 58 -74 65 -132 7 -54 7 -55 9
-14 0 23 -6 59 -14 78 -18 45 -75 111 -75 89z"/>
<path d="M7821 4634 c0 -11 3 -14 6 -6 3 7 2 16 -1 19 -3 4 -6 -2 -5 -13z"/>
<path d="M7806 4595 c-9 -26 -7 -32 5 -12 6 10 9 21 6 23 -2 3 -7 -2 -11 -11z"/>
</g>
</svg>
